<svg width="70" height="70" viewBox="0 0 70 70" fill="none" xmlns="http://www.w3.org/2000/svg">
<path d="M67.5 50.9899V60.7399C67.5037 61.6451 67.3183 62.541 66.9557 63.3703C66.593 64.1997 66.0612 64.9441 65.3942 65.556C64.7273 66.1679 63.9399 66.6338 63.0824 66.9237C62.225 67.2137 61.3165 67.3214 60.415 67.2399C50.4142 66.1533 40.8077 62.7359 32.3675 57.2624C24.5149 52.2726 17.8573 45.615 12.8675 37.7624C7.37493 29.2839 3.95679 19.6307 2.89 9.58495C2.80878 8.68622 2.91559 7.78042 3.20362 6.92523C3.49166 6.07004 3.9546 5.28419 4.56299 4.61772C5.17137 3.95125 5.91186 3.41875 6.73732 3.05415C7.56277 2.68954 8.4551 2.5008 9.3575 2.49995H19.1075C20.6847 2.48443 22.2138 3.04295 23.4097 4.07143C24.6056 5.09991 25.3867 6.52815 25.6075 8.08995C26.019 11.2102 26.7822 14.2738 27.8825 17.2224C28.3198 18.3857 28.4144 19.6499 28.1552 20.8653C27.896 22.0807 27.2938 23.1963 26.42 24.0799L22.2925 28.2074C26.9191 36.344 33.656 43.0809 41.7925 47.7074L45.92 43.5799C46.8036 42.7061 47.9192 42.104 49.1346 41.8448C50.35 41.5855 51.6142 41.6802 52.7775 42.1174C55.7261 43.2177 58.7898 43.9809 61.91 44.3924C63.4887 44.6152 64.9306 45.4104 65.9612 46.6268C66.9919 47.8432 67.5395 49.3961 67.5 50.9899Z" stroke="#303030" stroke-width="4" stroke-linecap="round" stroke-linejoin="round"/>
</svg>
