<svg width="69" height="69" viewBox="0 0 69 69" fill="none" xmlns="http://www.w3.org/2000/svg">
<path d="M52.1459 16.8542H52.1779M18.4584 2.41675H50.5417C59.4013 2.41675 66.5834 9.59885 66.5834 18.4584V50.5418C66.5834 59.4013 59.4013 66.5834 50.5417 66.5834H18.4584C9.59879 66.5834 2.41669 59.4013 2.41669 50.5418V18.4584C2.41669 9.59885 9.59879 2.41675 18.4584 2.41675ZM47.3334 32.4788C47.7293 35.149 47.2732 37.8759 46.03 40.2719C44.7868 42.6679 42.8197 44.6109 40.4086 45.8245C37.9974 47.038 35.265 47.4605 32.6 47.0316C29.935 46.6028 27.473 45.3445 25.5643 43.4358C23.6556 41.5271 22.3973 39.0651 21.9685 36.4001C21.5396 33.7351 21.9621 31.0027 23.1757 28.5915C24.3892 26.1804 26.3322 24.2133 28.7282 22.9701C31.1242 21.7269 33.8511 21.2708 36.5213 21.6667C39.2449 22.0706 41.7664 23.3398 43.7134 25.2867C45.6603 27.2337 46.9295 29.7552 47.3334 32.4788Z" stroke="#1E1E1E" stroke-width="4" stroke-linecap="round" stroke-linejoin="round"/>
</svg>
